<svg width="20.000000" height="20.000000" viewBox="0 0 20 20" fill="none" xmlns="http://www.w3.org/2000/svg" xmlns:xlink="http://www.w3.org/1999/xlink">
	<desc>
			Created with Pixso.
	</desc>
	<defs/>
	<path id="Vector" d="M5 0.625C5 0.458984 4.9342 0.299805 4.81689 0.182617C4.69971 0.0654297 4.54077 0 4.375 0C4.20923 0 4.05029 0.0654297 3.93311 0.182617C3.8158 0.299805 3.75 0.458984 3.75 0.625L3.75 1.25L2.5 1.25C1.83691 1.25 1.20105 1.51367 0.732178 1.98242C0.263428 2.45117 0 3.08691 0 3.75L0 5L20 5L20 3.75C20 3.08691 19.7366 2.45117 19.2678 1.98242C18.799 1.51367 18.1631 1.25 17.5 1.25L16.25 1.25L16.25 0.625C16.25 0.458984 16.1842 0.299805 16.0669 0.182617C15.9497 0.0654297 15.7908 0 15.625 0C15.4592 0 15.3003 0.0654297 15.1831 0.182617C15.0658 0.299805 15 0.458984 15 0.625L15 1.25L5 1.25L5 0.625ZM20 17.5L20 6.25L0 6.25L0 17.5C0 18.1631 0.263428 18.7988 0.732178 19.2676C1.20105 19.7363 1.83691 20 2.5 20L17.5 20C18.1631 20 18.799 19.7363 19.2678 19.2676C19.7366 18.7988 20 18.1631 20 17.5ZM11.875 8.75L13.125 8.75C13.2908 8.75 13.4497 8.81543 13.5669 8.93262C13.6842 9.0498 13.75 9.20898 13.75 9.375L13.75 10.625C13.75 10.791 13.6842 10.9502 13.5669 11.0674C13.4497 11.1846 13.2908 11.25 13.125 11.25L11.875 11.25C11.7092 11.25 11.5503 11.1846 11.4331 11.0674C11.3158 10.9502 11.25 10.791 11.25 10.625L11.25 9.375C11.25 9.20898 11.3158 9.0498 11.4331 8.93262C11.5503 8.81543 11.7092 8.75 11.875 8.75ZM15.625 8.75L16.875 8.75C17.0408 8.75 17.1997 8.81543 17.3169 8.93262C17.4342 9.0498 17.5 9.20898 17.5 9.375L17.5 10.625C17.5 10.791 17.4342 10.9502 17.3169 11.0674C17.1997 11.1846 17.0408 11.25 16.875 11.25L15.625 11.25C15.4592 11.25 15.3003 11.1846 15.1831 11.0674C15.0658 10.9502 15 10.791 15 10.625L15 9.375C15 9.20898 15.0658 9.0498 15.1831 8.93262C15.3003 8.81543 15.4592 8.75 15.625 8.75ZM2.5 13.125C2.5 12.959 2.5658 12.7998 2.68311 12.6826C2.80029 12.5654 2.95923 12.5 3.125 12.5L4.375 12.5C4.54077 12.5 4.69971 12.5654 4.81689 12.6826C4.9342 12.7998 5 12.959 5 13.125L5 14.375C5 14.541 4.9342 14.7002 4.81689 14.8174C4.69971 14.9346 4.54077 15 4.375 15L3.125 15C2.95923 15 2.80029 14.9346 2.68311 14.8174C2.5658 14.7002 2.5 14.541 2.5 14.375L2.5 13.125ZM6.875 12.5L8.125 12.5C8.29077 12.5 8.44971 12.5654 8.56689 12.6826C8.6842 12.7998 8.75 12.959 8.75 13.125L8.75 14.375C8.75 14.541 8.6842 14.7002 8.56689 14.8174C8.44971 14.9346 8.29077 15 8.125 15L6.875 15C6.70923 15 6.55029 14.9346 6.43311 14.8174C6.3158 14.7002 6.25 14.541 6.25 14.375L6.25 13.125C6.25 12.959 6.3158 12.7998 6.43311 12.6826C6.55029 12.5654 6.70923 12.5 6.875 12.5Z" fill="#FFFFFF" fill-opacity="1.000000" fill-rule="nonzero"/>
</svg>
