<svg width="13.750000" height="17.500000" viewBox="0 0 13.75 17.5" fill="none" xmlns="http://www.w3.org/2000/svg" xmlns:xlink="http://www.w3.org/1999/xlink">
	<desc>
			Created with Pixso.
	</desc>
	<defs/>
	<path id="Vector" d="M6.875 0C5.05225 0.00195312 3.30481 0.727539 2.01599 2.01562C0.727173 3.30469 0.00219727 5.05273 0 6.875C-0.00219727 8.36426 0.484375 9.81348 1.38501 11C1.38501 11 1.57251 11.2471 1.60315 11.2822L6.875 17.5L12.1494 11.2793C12.1769 11.2461 12.365 11 12.365 11L12.3656 10.998C13.2659 9.8125 13.7522 8.36426 13.75 6.875C13.7478 5.05273 13.0228 3.30469 11.734 2.01562C10.4452 0.727539 8.69775 0.00195312 6.875 0ZM6.875 9.375C6.38062 9.375 5.89722 9.22852 5.48608 8.9541C5.07495 8.67871 4.75452 8.28809 4.56531 7.83203C4.3761 7.375 4.32654 6.87207 4.4231 6.3877C4.51953 5.90234 4.75757 5.45703 5.1073 5.10742C5.45691 4.75781 5.90234 4.51953 6.38733 4.42285C6.87219 4.32617 7.37488 4.37598 7.83167 4.56543C8.28857 4.75488 8.67896 5.0752 8.95374 5.48633C9.22839 5.89746 9.375 6.38086 9.375 6.875C9.37415 7.53809 9.11047 8.17285 8.64185 8.6416C8.17322 9.11035 7.53784 9.37402 6.875 9.375Z" fill="#FFFFFF" fill-opacity="1.000000" fill-rule="nonzero"/>
</svg>
