<svg width="29.562500" height="37.625000" viewBox="0 0 29.5625 37.625" fill="none" xmlns="http://www.w3.org/2000/svg" xmlns:xlink="http://www.w3.org/1999/xlink">
	<desc>
			Created with Pixso.
	</desc>
	<defs/>
	<path id="Vector" d="M14.7812 0C10.8625 0.00488281 7.10547 1.56348 4.33444 4.33398C1.56342 7.10547 0.00463867 10.8623 3.05176e-05 14.7812C-0.00466919 17.9834 1.04138 21.0996 2.97775 23.6504C2.97775 23.6504 3.38089 24.1807 3.44675 24.2578L14.7812 37.625L26.1212 24.251C26.1803 24.1797 26.5848 23.6504 26.5848 23.6504L26.5861 23.6455C28.5215 21.0967 29.5671 17.9824 29.5625 14.7812C29.5579 10.8623 27.9991 7.10547 25.2281 4.33398C22.4571 1.56348 18.7001 0.00488281 14.7812 0ZM14.7812 20.1562C13.7182 20.1562 12.679 19.8408 11.7951 19.25C10.9112 18.6602 10.2222 17.8203 9.8154 16.8379C9.4086 15.8564 9.30215 14.7754 9.50955 13.7324C9.71695 12.6904 10.2289 11.7324 10.9806 10.9805C11.7323 10.2285 12.69 9.7168 13.7327 9.50977C14.7753 9.30176 15.856 9.4082 16.8382 9.81543C17.8203 10.2227 18.6598 10.9111 19.2504 11.7949C19.841 12.6787 20.1562 13.7178 20.1562 14.7812C20.1545 16.2061 19.5876 17.5723 18.58 18.5801C17.5724 19.5879 16.2063 20.1543 14.7812 20.1562Z" fill="#018ABE" fill-opacity="1.000000" fill-rule="nonzero"/>
</svg>
