<svg width="60.000000" height="60.000000" viewBox="0 0 60 60" fill="none" xmlns="http://www.w3.org/2000/svg" xmlns:xlink="http://www.w3.org/1999/xlink">
	<desc>
			Created with Pixso.
	</desc>
	<defs/>
	<path id="Форма 1" d="M6.5237 48.9517C9.30804 51.8135 12.5739 53.5171 16.3409 54.0732C16.4608 54.0913 17.3278 54.0942 18.2675 54.0801C20.5238 54.0469 21.6163 53.853 24.7383 52.9326C28.1397 51.9302 28.5844 51.8369 29.9731 51.8369C31.3616 51.8369 31.8053 51.9297 35.2079 52.9326C38.4446 53.8862 39.5962 54.082 41.9696 54.082C43.5433 54.082 43.8475 54.0625 44.581 53.9141C46.3338 53.5596 48.5839 52.6494 50.1126 51.6768C54.404 48.9458 57.5673 44.2666 59.0933 38.3916C59.5495 36.6353 59.784 35.2983 59.8703 33.9604C59.9855 32.1768 60.0243 26.8398 59.9234 26.6514C59.8563 26.5264 59.8592 26.5083 59.9388 26.5562C60.0156 26.6021 60.0191 26.5923 59.9549 26.5103C59.9096 26.4526 59.8669 26.0962 59.8595 25.7153C59.8357 24.4858 59.2764 21.9219 58.5982 19.9351C55.9943 12.3047 50.8293 6.25049 43.763 2.54492C41.5517 1.38525 38.3045 0.178223 37.2859 0.136719C37.0589 0.12793 36.8564 0.0932617 36.836 0.0600586C36.8155 0.0273438 36.6372 0 36.4396 0C36.1364 0 36.0805 0.0214844 36.0805 0.136719C36.0805 0.245605 36.2121 0.314453 36.7166 0.470703C38.3112 0.964355 40.7999 2.07129 42.4422 3.01758C46.4511 5.32715 50.0636 8.73193 52.6128 12.6035C55.2103 16.5488 56.7085 20.8555 57.2495 25.9336C57.3722 27.0845 57.3711 30.4814 57.2477 31.5996C56.49 38.4673 53.646 44.1836 49.4339 47.3042C47.286 48.895 44.9235 49.7168 42.2241 49.812C40.5767 49.8696 38.9725 49.5718 36.8075 48.8057C35.4005 48.3076 32.8148 47.5015 32.1942 47.3672C31.1528 47.1416 30.0903 47.0649 29.1928 47.1499C27.8481 47.2773 27.0168 47.4966 23.9467 48.5347C20.6818 49.6382 19.5274 49.8755 17.7223 49.812C15.4951 49.7334 13.5021 49.1621 11.6878 48.082C6.82746 45.1895 3.54967 39.1807 2.69654 31.5991C2.55746 30.3643 2.57774 26.8872 2.73151 25.5771C3.52037 18.8569 6.11284 13.2168 10.5681 8.52734C12.3072 6.69727 14.4102 4.93799 16.2042 3.81348C18.592 2.31689 21.068 1.13818 23.2246 0.47168C23.7395 0.3125 23.8538 0.250977 23.8453 0.138184C23.8365 0.0214844 23.7763 0 23.4548 0C23.2457 0 23.0576 0.0273438 23.0369 0.0610352C23.0161 0.0947266 22.8342 0.12793 22.6325 0.135254C22.0153 0.156738 19.9436 0.835449 18.1307 1.60938C17.3128 1.9585 15.0745 3.0918 14.705 3.34375C14.605 3.41211 14.0815 3.75439 13.5417 4.10498C11.7774 5.25 10.3124 6.43359 8.78346 7.94873C7.09669 9.62061 5.18752 12.04 4.19384 13.7656C4.14775 13.8457 3.98692 14.1235 3.83643 14.3833C3.34297 15.2344 2.312 17.3784 1.92324 18.3623C0.910019 20.9258 0.173656 23.8828 0.0472183 25.897C-0.0147972 26.8853 -0.0161057 32.666 0.0455475 33.7061C0.226074 36.7539 1.27914 40.5645 2.75711 43.519C3.88667 45.7769 5.00698 47.3926 6.5237 48.9517ZM17.4323 17.6226L24.9209 35.5078L26.3077 35.5078L31.0574 22.8066L36.3965 35.5078L37.7833 35.5078L46 13.832L44.3359 13.832L38.4074 29.4165L33.4496 17.6226C32.918 16.3696 32.2709 15.4629 31.5081 14.9009C30.7454 14.3179 29.9364 13.9399 29.0813 13.7671Q27.7985 13.5078 26.585 13.5078C26.4233 13.5078 26.1806 13.5186 25.857 13.54C25.5334 13.562 25.3254 13.5728 25.2329 13.5728L25.2329 14.2207C25.9263 14.3071 26.5735 14.5879 27.1744 15.063C27.7985 15.5381 28.3763 16.3916 28.9079 17.6226L30.1213 20.5063L27.0011 28.8008L22.3207 17.6226C21.7891 16.3696 21.1419 15.4517 20.3792 14.8687C19.6165 14.2856 18.8075 13.9185 17.9523 13.7671Q16.6696 13.5078 15.4561 13.5078C15.2943 13.5078 15.0401 13.5186 14.6934 13.54C14.3236 13.562 14.0925 13.5728 14 13.5728L14 14.2207Q14.4612 14.2783 14.8747 14.4502Q15.3937 14.6665 15.8375 15.063C16.3691 15.5381 16.9007 16.3916 17.4323 17.6226ZM12.5602 46.165C13.9619 46.8564 15.1403 47.2075 16.5954 47.3662C17.3435 47.4478 19.0321 47.3887 19.8661 47.252C20.8728 47.0864 21.8655 46.8208 22.8706 46.4478C25.629 45.4238 26.2664 45.2339 27.8793 44.9561C28.5555 44.8394 29.0751 44.8018 30.0096 44.8027C32.1823 44.8047 33.6604 45.1279 36.5895 46.2417C37.9092 46.7437 39.0751 47.0752 40.1884 47.2646C41.1923 47.436 43.3573 47.4341 44.2599 47.2617C46.212 46.8887 48.0995 46.02 49.5674 44.8193C50.1748 44.3223 51.1852 43.2827 51.649 42.6772C52.4918 41.5776 53.5778 39.7471 53.503 39.5522C53.4259 39.3516 53.1323 39.4355 52.8358 39.7422C52.3921 40.2012 51.176 41.1602 50.3309 41.7173C47.5417 43.5562 44.4239 44.1558 41.0322 43.5044C40.0205 43.3105 39.1577 43.0513 37.6074 42.4756C36.1761 41.9438 35.227 41.6333 34.3719 41.416C32.603 40.9663 30.6464 40.7778 28.9783 40.896C26.7375 41.0547 25.1308 41.4507 22.121 42.5864C20.2113 43.3071 18.9945 43.5947 17.2861 43.729C15.8305 43.8438 14.0902 43.6396 12.742 43.1968C12.0699 42.9761 10.8557 42.4473 10.7005 42.3081C10.6374 42.252 10.5525 42.2051 10.5118 42.2051C10.2789 42.2051 8.19601 40.6714 7.28733 39.8311C6.8716 39.4468 6.59539 39.3462 6.51686 39.5503C6.4691 39.6748 7.04071 40.7188 7.69143 41.6968C9.06746 43.7642 10.6644 45.23 12.5602 46.165ZM26.3971 59.8682C26.8094 59.8779 27.1622 59.9106 27.1809 59.9409C27.2301 60.0205 32.717 60.019 32.7665 59.9395C32.7889 59.9033 33.1513 59.8687 33.5718 59.8623C35.643 59.832 40.1304 58.689 43.0241 57.4546C44.5079 56.8218 46.9254 55.4722 47.0209 55.2231C47.0835 55.0605 46.9836 54.9736 46.7779 55.0122C46.6727 55.0317 46.2103 55.1807 45.7505 55.3433C44.0207 55.9546 42.5817 56.2241 41.0505 56.2246C38.946 56.2256 37.8827 56.0415 35.1793 55.209C30.4723 53.7598 29.2868 53.7666 24.5484 55.269C22.0607 56.0576 21.2785 56.187 18.9948 56.187C17.4726 56.187 17.2932 56.1729 16.4137 55.9824C15.8939 55.8696 14.9941 55.6147 14.4143 55.4155C13.2026 54.9995 12.9947 54.9482 12.9321 55.0493C12.8461 55.1885 12.9657 55.3184 13.4889 55.6558C16.3204 57.4795 20.5702 59.0044 24.7749 59.7051C25.2547 59.7852 25.9847 59.8584 26.3971 59.8682Z" fill="#FFFFFF" fill-opacity="1.000000" fill-rule="evenodd"/>
</svg>
