<svg width="20.000000" height="16.000000" viewBox="0 0 20 16" fill="none" xmlns="http://www.w3.org/2000/svg" xmlns:xlink="http://www.w3.org/1999/xlink">
	<desc>
			Created with Pixso.
	</desc>
	<defs/>
	<path id="Vector" d="M6.02637 3.36621C5.72656 2.35059 4.91272 2.46191 4.35632 2.93555C2.98572 4.20117 1.20105 6.8584 2.34326 10.6855C3.2998 13.9268 7.28015 16 7.28015 16L2.64014 16C2.64014 16 0.244263 13.3145 0.0301514 10.1562C-0.241089 6.16309 1.35803 3.64551 3.21411 2.00391C4.95593 0.458984 6.61218 0 6.61218 0L10 11.0996L13.3878 0C13.3878 0 15.0439 0.458984 16.7858 2.00391C18.6418 3.64551 20.2411 6.16309 19.9698 10.1562C19.7556 13.3145 17.3597 16 17.3597 16L12.7198 16C12.7198 16 16.6998 13.9268 17.6567 10.6855C18.7988 6.85938 17.0143 4.20215 15.6436 2.93555C15.0868 2.46191 14.2729 2.35059 13.9736 3.36621C12.9457 6.6084 10.0004 15.8965 10.0004 15.8965C10.0004 15.8965 7.05518 6.60547 6.02722 3.36621L6.02637 3.36621Z" fill="#FFFFFF" fill-opacity="1.000000" fill-rule="nonzero"/>
</svg>
